<svg enable-background="new 0 0 72 50" height="50" viewBox="0 0 72 50" width="72" xmlns="http://www.w3.org/2000/svg"><path d="m69.334 29.401c.542 1.523.814 3.044.814 4.564v.651c0 4.132-1.304 7.636-3.912 10.514-2.607 2.881-6.356 4.319-11.247 4.319-5.108 0-8.911-1.492-11.409-4.482-2.501-2.987-3.749-6.545-3.749-10.676v-1.956c0-2.935.433-5.84 1.304-8.721.868-2.878 2.063-5.677 3.586-8.395 1.521-2.715 3.285-5.323 5.298-7.824 2.009-2.499 4.101-4.781 6.275-6.846h15.484c-3.695 2.827-6.874 6.113-9.535 9.862-2.664 3.749-4.538 7.31-5.623 10.676h.651c2.063 0 3.912.382 5.542 1.141 1.63.761 2.987 1.768 4.075 3.016 1.085 1.252 1.901 2.637 2.446 4.157zm-37.164-28.851h-15.485c-2.175 2.065-4.266 4.348-6.275 6.846-2.012 2.501-3.777 5.109-5.297 7.824-1.523 2.718-2.718 5.517-3.586 8.395-.871 2.881-1.304 5.787-1.304 8.721v1.956c0 4.131 1.248 7.688 3.749 10.676 2.499 2.99 6.301 4.482 11.41 4.482 4.89 0 8.639-1.438 11.247-4.319 2.607-2.878 3.912-6.382 3.912-10.514v-.651c0-1.521-.272-3.041-.815-4.564-.545-1.521-1.36-2.905-2.445-4.156-1.087-1.248-2.444-2.254-4.074-3.016-1.63-.759-3.479-1.141-5.542-1.141h-.652c1.085-3.367 2.959-6.927 5.623-10.676 2.66-3.75 5.839-7.036 9.534-9.863z" fill="#fff"/></svg>